<svg version="1.2" xmlns="http://www.w3.org/2000/svg" viewBox="0 0 969 236" width="969" height="236"><style>.A{fill:#6a3e1e}</style><path fill-rule="evenodd" class="A" d="m746 13.2c6.3 0.4 14.1 1.8 19.5 3.3 5 1.5 12.1 4.3 23 10.1l0.5 34.4h-42v-6c0-3.3-0.7-7.6-1.5-9.5-1.1-2.5-2.3-3.7-4.3-4-1.5-0.3-3.9-0.1-5.5 0.5-1.5 0.5-3.2 1.9-3.7 3-0.6 1.2-1 14.8-1 34.3 0 25.4 0.3 32.6 1.3 34.2 0.8 1.1 2.7 2.4 4.3 2.8 1.9 0.5 3.9 0.3 5.7-0.5 1.6-0.7 3.2-2.6 3.8-4.3 0.5-1.7 0.9-6 0.9-16.5h-8v-25h50v62l-4.8 3c-2.6 1.7-7 3.9-9.7 4.9-2.8 1.1-8.8 2.6-13.5 3.5-5.6 1.1-13.8 1.6-24 1.6-10.1 0-17.7-0.5-21.8-1.5-3.4-0.8-8-2.4-10.2-3.5-2.2-1.1-5.9-3.9-8.3-6.2-2.3-2.4-5.4-6.5-9.2-14.3v-82l2.6-5c1.5-2.7 4.3-6.5 6.3-8.2 2-1.8 5.7-4.4 8.3-5.7 2.7-1.3 6.8-2.9 9.3-3.6 2.5-0.7 8.3-1.6 13-1.9 4.7-0.3 13.2-0.3 19 0.1zm79.4 0c2.2 0.4 5.2 1.5 6.6 2.6 1.4 1 3.5 3.4 4.8 5.3 1.7 2.6 2.3 4.8 2.2 9.4 0 4.7-0.6 7.3-3 12-1.6 3.3-5.3 8.4-8.2 11.4-2.9 2.9-6.5 6.2-10.8 9.1l-7.5-6.7 3.6-4.4c2-2.4 4.1-5.4 4.8-6.6 0.6-1.3 1.1-2.5 1.1-2.8 0-0.3-0.7-0.5-1.5-0.5-0.8 0-3.3-0.9-5.5-2-2.2-1.1-4.7-3.3-5.5-5-0.8-1.6-1.5-5.2-1.5-8 0-4 0.5-5.6 2.7-8.1 1.6-1.8 3.7-3.6 4.8-4.2 1.1-0.6 3.5-1.3 5.4-1.7 1.8-0.3 5.2-0.3 7.5 0.2zm81.6 0.1c13.3 0.3 19.3 0.8 25 2.3 4.1 1 11.1 3.7 23.5 9.9l0.5 31.5h-41v-4c0-2.2-0.7-5.6-1.5-7.5-1.2-2.7-2.2-3.6-4.8-4.1-2.3-0.4-3.9 0-5.7 1.4-1.4 1.1-2.8 3-3.1 4.3-0.3 1.3-0.3 3.5 0 4.8 0.4 1.4 2.1 3.1 4.1 4.2 1.9 1 8.6 3.2 14.7 4.9 6.2 1.6 14.8 4.3 19.1 5.9 4.4 1.7 9.6 4.6 12.2 6.9 2.7 2.3 5.5 6.1 7 9.3 2.3 4.9 2.5 6.6 2.5 19.4 0 12.9-0.2 14.4-2.6 19.5-1.4 3-4.3 7.4-6.5 9.8-2.1 2.4-6.6 5.7-9.9 7.3-3.3 1.6-9.4 3.7-13.5 4.5-5.8 1.3-11.3 1.6-24 1.2-13.1-0.3-18.2-0.9-24.5-2.6-4.4-1.3-11.1-4-22-9.8l-0.5-35.4h43l0.6 6.8c0.3 3.7 1.1 7.7 1.7 8.9 0.7 1.3 2.2 2.7 3.4 3.3 1.3 0.5 3 1 3.8 1 0.8 0 2.6-1 4-2.2 1.4-1.3 2.8-3.9 3.1-5.8 0.4-2.2 0-4.9-1-7.3-0.9-2-2.8-4.5-4.3-5.5-1.5-0.9-9.3-3.3-17.3-5.3-8-2-17-4.8-20-6.2-3-1.4-7.3-4.3-9.4-6.4-2.2-2.1-4.9-5.8-6-8.3-1.5-3.4-2.1-7.2-2.4-16-0.3-8.4 0-13 1.1-17 1-3.7 3-7.1 6-10.5 2.4-2.7 6.8-6.3 9.8-7.9 3-1.6 8.1-3.5 11.4-4.2 4-0.9 11.7-1.2 23.5-1.1zm-898 1.7h53v11.8c-0.1 9.3-0.4 11.9-1.6 12.7-0.8 0.5-1.9 2.8-2.4 5-0.5 2.2-1 7.5-1 19.5h16v-11c0-10.4-0.1-11.1-2.5-13.2-2.3-2.2-2.5-2.9-2.5-24.8h54v11.8c-0.1 9.3-0.4 11.9-1.6 12.7-0.8 0.5-1.9 2.8-2.4 5-0.5 2.2-1 17.7-1 34.5 0 16.8 0.5 32.3 1 34.5 0.5 2.2 1.6 4.5 2.4 5 1.2 0.8 1.5 3.4 1.6 24.5h-54v-11.2c0-10.7 0.2-11.4 2.5-13.5 2.4-2.2 2.5-2.7 2.5-29.3h-16v10.3c0 5.6 0.5 12 1 14.2 0.5 2.2 1.6 4.5 2.4 5 1.2 0.8 1.5 3.4 1.6 24.5h-53v-11.5c0-10.1 0.2-11.8 2-13.7 2-2.2 2-3.6 2-38.8 0-35.2 0-36.6-2-38.8-1.8-1.9-2-3.6-2-13.7zm154.5 141.1c5.3-0.1 11.1 0.5 14 1.3 2.7 0.8 6.2 2.8 7.7 4.3 1.5 1.5 3.2 4 3.7 5.6 0.7 1.5 1.1 10.7 1.1 21.7 0 11-0.4 20.2-1.1 21.8-0.5 1.5-2.2 4-3.7 5.5-1.5 1.5-5 3.5-7.7 4.3-2.8 0.8-8.8 1.4-13.5 1.4-4.7 0-10.3-0.5-12.5-1.1-2.2-0.6-5.3-2.1-6.9-3.3-1.7-1.1-3.8-3.9-4.8-6.1-1.5-3.4-1.8-6.9-1.8-22.5 0-15.6 0.3-19.1 1.8-22.5 1-2.2 3.1-5 4.8-6.1 1.6-1.2 4.5-2.7 6.4-3.2 1.9-0.6 7.6-1.1 12.5-1.1zm-3.6 32.8c0.1 8.3 0.5 16 1.1 17.1 0.6 1.1 1.8 2 2.8 2 1 0 2.3-0.6 3-1.2 0.9-0.9 1.2-6.2 1.2-17.8 0-12-0.3-16.8-1.2-17.8-0.7-0.7-2.1-1.2-3-1.2-1 0-2.2 0.9-2.9 1.9-0.7 1.2-1 7.6-1 17zm384.6-32.9c6.3 0 10.9 0.6 15.5 1.9 3.6 1.1 7.5 2.7 8.7 3.6 2 1.3 2.3 2.3 2.3 16.5h-20.5l-1-3.7c-0.7-2.8-1.6-3.9-3.3-4-1.4-0.2-2.6 0.4-3.2 1.7-0.5 1.1-0.8 2.6-0.5 3.3 0.2 0.6 1.7 1.7 3.2 2.4 1.5 0.6 5.9 2 9.8 3.2 3.8 1.1 8.6 3 10.5 4.3 1.9 1.3 4.3 3.9 5.2 5.8 1.2 2.2 1.8 5.8 1.8 9.8 0 3.4-0.6 7.7-1.3 9.5-0.8 1.7-3.1 4.7-5.3 6.4-2.3 1.9-6 3.8-8.9 4.4-2.8 0.6-9.5 1-15 0.7-8.6-0.3-10.8-0.7-22-6.3l-0.5-17.5h22v2.8c-0.1 1.5 0.7 3.8 1.7 5.1 1.3 1.7 2.4 2.2 4 1.7 1.3-0.3 2.5-1.5 2.8-2.6 0.3-1.1-0.1-3.2-0.8-4.7-1.1-2.4-2.4-3.1-10.2-5.1-5-1.3-10.4-3.1-12-4.1-1.7-0.9-4-3.3-5.3-5.2-2.1-3-2.3-4.3-2-11.6 0.3-7.9 0.4-8.4 3.8-11.8 1.9-1.9 5.3-4.2 7.5-5 2.3-0.8 7.8-1.4 13-1.5zm263.5 0.1c4.7-0.1 10.3 0.4 12.5 1 2.2 0.6 6.2 2.1 13.6 5.4l-0.1 18.5h-21v-3.7c0-2.1-0.6-4.7-1.4-5.8-1.2-1.6-1.8-1.8-3.3-0.9-1.6 1-1.8 2.8-1.8 18.4 0 15.6 0.2 17.4 1.8 18.4 1.5 0.9 2.1 0.7 3.3-0.9 0.8-1.2 1.4-4.2 1.4-12.5h21v22l-3.8 1.9c-2 1-6.2 2.4-9.2 3.1-3.1 0.7-9.4 1.1-14.5 0.8-7.2-0.3-9.9-0.9-13.4-2.8-2.4-1.4-5.4-3.8-6.5-5.3-1.9-2.6-2.1-4.4-2.4-23.5-0.2-12.6 0.1-21.7 0.7-23.2 0.6-1.4 2.3-3.7 3.8-5.2 1.6-1.5 4.6-3.4 6.8-4.2 2.3-0.8 7.7-1.5 12.5-1.5zm114.5-0.1c6.3 0 10.9 0.6 15.5 1.9 3.6 1.1 7.5 2.7 8.7 3.6 2 1.3 2.3 2.3 2.3 16.5h-20.5l-1-3.7c-0.7-2.8-1.6-3.9-3.3-4-1.4-0.2-2.6 0.4-3.2 1.7-0.5 1.1-0.8 2.6-0.5 3.3 0.2 0.6 1.7 1.7 3.2 2.4 1.5 0.6 5.9 2 9.8 3.2 3.8 1.1 8.6 3 10.5 4.3 1.9 1.3 4.3 3.9 5.2 5.8 1.2 2.2 1.8 5.8 1.8 9.8 0 3.4-0.6 7.7-1.3 9.5-0.8 1.7-3.1 4.7-5.3 6.4-2.3 1.9-6 3.8-8.9 4.4-2.8 0.6-9.5 1-15 0.7-8.6-0.3-10.8-0.7-22-6.3l-0.5-17.5h22v2.8c-0.1 1.5 0.7 3.8 1.7 5.1 1.3 1.7 2.4 2.2 4 1.7 1.3-0.3 2.5-1.5 2.8-2.6 0.3-1.1-0.1-3.2-0.8-4.7-1.1-2.4-2.4-3.1-10.2-5.1-5-1.3-10.4-3.1-12-4.1-1.7-0.9-4-3.3-5.3-5.2-2.1-3-2.3-4.3-2-11.6 0.3-7.9 0.4-8.4 3.8-11.8 1.9-1.9 5.3-4.2 7.5-5 2.3-0.8 7.8-1.4 13-1.5zm-768.1-141h31.8c17.5 0 31.8 0.3 31.8 0.8 0 0.4 4.7 22.2 10.5 48.5 5.8 26.2 11.1 48.9 11.9 50.5 0.7 1.5 2.1 3.4 3 4.2 1.4 1.2 1.7 3.5 1.6 24h-55v-12c0-9.8 0.3-12.1 1.5-12.5 0.8-0.3 1.9-1.5 2.4-2.7 0.5-1.3 0.8-3.3 0.5-4.5-0.4-2.2-0.8-2.3-21.4-2.3v3.5c0 2.4 0.7 4.2 2.5 5.8 2.3 2.1 2.4 2.8 2.5 24.7h-48v-11.7c-0.1-9.6 0.2-12.1 1.5-13.3 0.9-0.8 2.2-3.5 2.9-6 0.8-2.5 5.5-25.3 10.7-50.7zm22 68.5c10.1 0.3 13.1 0.3 13.2 0.2 0.1-0.1-1.2-7.6-2.8-16.5-1.5-8.9-3.2-16.2-3.7-16.2-0.4 0-2.1 7.3-3.8 16.2zm75.7-68.6l42.2 0.3c39.7 0.3 42.5 0.4 47.2 2.3 2.8 1.1 6.8 3.4 9 5.1 2.2 1.7 5.4 5.6 7 8.5 2.9 5.2 3 5.9 3 17.9 0 10.8-0.2 13-2.1 16.5-1.2 2.2-4 5.7-6.2 7.8-2.3 2-5.3 3.9-6.7 4.2-1.3 0.3-2.5 1-2.5 1.5 0 0.5 1.3 1.3 2.8 1.6 1.5 0.3 4.2 1.6 6 3 1.8 1.3 3.8 3.4 4.4 4.7 0.7 1.2 1.6 7.8 2 14.7 0.7 11.5 1 12.7 3.3 15 2.4 2.4 2.5 3.1 2.5 25h-48l-1-5c-0.5-2.7-1-11.4-1-19.2 0-7.9-0.4-16-1-18-0.5-2.1-2-4.4-3.2-5.2-1.3-0.7-4-1.6-9.8-2.6l0.1 8.3c0 4.5 0.4 10 0.9 12.2 0.5 2.2 1.6 4.5 2.5 5 1.1 0.8 1.5 3.4 1.5 24.5h-53v-11.5c0-10.1 0.3-11.8 2.1-13.7 1.9-2.2 2-3.6 2-38.8 0-35.2-0.1-36.6-2-38.8-1.8-1.9-2.1-3.5-2-13.8zm47.9 52.2c9.6-0.5 11.5-1.1 13.2-2.8 1.8-1.9 2.4-3.7 2.7-9 0.3-5.9 0-7.1-2-9.6-2-2.4-3.4-3-8-3.4l-5.6-0.5zm75.1-52.1l41.2 0.3c39.7 0.3 41.4 0.4 46.7 2.5 3 1.2 7.5 3.9 10 6.1 2.6 2.3 5.5 6.1 9.5 14.7v81l-3 5.4c-1.7 3-4.8 6.9-7 8.8-2.2 1.8-6 4.2-8.3 5.3-2.3 1.1-6.2 2.4-8.5 3-2.3 0.5-21.3 1-80.7 1v-11c0-10.3 0.1-11.2 5-17v-72l-2.5-3c-2.4-2.8-2.5-3.7-2.5-14zm48.9 100.1c9.1 0 10.6-0.5 12.5-2.5l2.5-2.5v-61c-3.9-3.9-5.8-5-6.7-5-1 0-3.2-0.3-4.9-0.7l-3.1-0.6zm71-100h53v11.5c0 10.1-0.2 11.8-2 13.8-2 2.1-2 3.5-2 38.7 0 35.2 0 36.6 2 38.8 1.8 1.9 2 3.6 2 25.2h-53v-11c0-9.8 0.3-11.3 2.3-14.1 2.2-3 2.2-3.7 2.5-34.2 0.2-17.2 0.1-33.6-0.2-36.4-0.4-3.4-1.3-6-2.6-7.3-1.8-1.8-2-3.3-2-13.5zm66 0l48.3 0.5 11.4 27c6.2 14.9 11.5 27.5 11.8 28 0.3 0.6 0.4-5.4 0.2-13.2-0.2-12.9-0.4-14.4-2.4-17.2-2-2.8-2.3-4.3-2.3-25.1h45v11.8c-0.1 9.3-0.4 11.9-1.6 12.7-0.8 0.6-1.9 2.8-2.4 5-0.5 2.2-1 25.3-1 98.5h-42.5l-5.9-13.2c-3.3-7.3-9.1-20-19.7-43.3l0.3 14.2c0.3 12.8 0.5 14.4 2.6 17.2 2 2.8 2.2 4.3 2.2 25.1h-44v-11.2c0.1-10.3 0.3-11.5 2.3-13.6 2.2-2.4 2.2-2.5 2.2-39.2 0-36.7 0-36.8-2.2-39.2-2.1-2.1-2.2-3.3-2.2-13.6zm-543.1 142.1h20.3c19 0 20.5 0.1 24.7 2.2 2.4 1.3 5.3 3.5 6.5 5.1 1.7 2.3 2.1 4.6 2.4 14 0.3 9.8 0.1 11.7-1.8 15.4-1.5 3-3.3 4.9-6.3 6.4-2.8 1.4-7.1 2.4-12.6 2.8-8.3 0.6-8.3 0.6-7.6 3.1 0.3 1.3 0.8 5.3 1.4 15h-27v-5.5c0-3.3 0.6-6.4 1.5-7.8 1.3-1.8 1.5-5.4 1.3-20.1-0.2-13.4-0.6-18-1.5-18.3-0.9-0.2-1.3-2.4-1.3-6.3zm25 32c4.3-0.9 5.8-1.7 6.2-2.4 0.5-0.6 0.8-3.5 0.8-6.4 0-2.9-0.4-6.1-1-7.2-0.6-1.2-2-2-3.5-2-2.5 0-2.5 0-2.5 9zm33.8-32h20.9c19.6 0 21.1 0.1 25.3 2.2 2.7 1.4 5.2 3.6 6.4 5.8q2 3.5 2 9c0 3-0.6 6.6-1.3 8-0.7 1.3-2.5 3.4-6.6 6.8l3.3 2.6c3 2.4 3.2 3 3.2 8.3 0 3.6 0.6 6.5 1.5 7.8 0.9 1.2 1.5 4.2 1.5 13.5h-12c-11.6 0-12-0.1-12.5-2.3-0.2-1.2-0.5-5.8-0.5-10.2 0-5-0.4-8.7-1.2-9.7-0.7-0.9-2.3-1.9-3.5-2.2-2.2-0.6-2.3-0.3-2.3 4.9 0 3.5 0.5 6 1.5 7 1 0.9 1.5 3.4 1.5 12.5h-27l0.6-6.8c0.3-3.7 0.6-15.1 0.6-25.2 0-10.2-0.3-21.6-0.7-25.3zm24.3 20c-0.1 5.8 0 6 2.4 6q2.5 0 4.1-2.7c1.3-2.1 1.5-3.5 0.8-5.8-0.8-2.4-1.6-3-4.1-3.3l-3.2-0.3zm96-19.9l20.2-0.1c19.1 0 20.5 0.2 24.7 2.3 2.4 1.2 5.4 3.5 6.5 5.1 1.7 2.3 2.1 4.6 2.4 14 0.3 9.8 0.1 11.7-1.7 15.4-1.5 3-3.4 4.9-6.4 6.4-2.8 1.4-7.1 2.3-12.6 2.7-8.3 0.7-8.3 0.7-7.6 3.2 0.4 1.3 0.9 5.3 1.5 15h-27v-5.5c0-3.3 0.6-6.5 1.5-7.8 1.2-1.8 1.4-5.5 1.2-20.2-0.2-13.3-0.6-18-1.5-18.2-0.8-0.2-1.2-2.4-1.2-6.3zm25 32c4.2-0.9 5.8-1.7 6.2-2.4 0.4-0.6 0.7-3.5 0.7-6.4 0-2.9-0.4-6.1-0.9-7.2-0.6-1.2-2-2-3.5-2-2.5 0-2.5 0-2.5 9zm85-32v22h-20v-2.5c0-1.4-0.7-3.2-1.5-4-0.9-0.9-2.7-1.5-4-1.5-2.4 0-2.5 0.3-2.5 11h14v13h-14v6c0 5.5 0.1 6 2.2 5.9 1.2 0 2.8-0.3 3.5-0.7 0.7-0.4 1.6-2.7 2.8-9.3l19.5 0.1v24h-53v-5.8c0-3.5 0.6-6.5 1.5-7.7 1.2-1.6 1.5-5.5 1.5-18.5 0-13.1-0.3-17-1.5-18.5-0.8-1.1-1.6-4.3-1.7-7.1-0.1-2.8 0.2-5.4 0.7-5.8 0.4-0.3 12.4-0.6 52.5-0.6zm4.8 0l20.8-0.1c19.7 0 21.1 0.2 25.3 2.3 2.8 1.4 5.3 3.6 6.5 5.8q1.9 3.5 1.9 9c0 3-0.6 6.6-1.3 8-0.7 1.3-2.4 3.4-6.5 6.8l3.2 2.6c3 2.4 3.3 3 3.2 8.3 0 3.6 0.6 6.5 1.5 7.8 0.9 1.2 1.5 4.2 1.6 13.5h-12c-11.7 0-12.1-0.1-12.5-2.3-0.3-1.2-0.5-5.8-0.5-10.2 0-5-0.5-8.7-1.3-9.7-0.7-0.9-2.3-1.9-3.5-2.2-2.1-0.6-2.2-0.4-2.2 4.9 0 3.5 0.5 6 1.5 7 0.9 0.9 1.5 3.4 1.5 12.5h-27l0.5-6.8c0.4-3.7 0.6-15.1 0.6-25.2 0-10.2-0.3-21.6-0.7-25.3zm24.3 19.9c-0.1 5.9 0 6.1 2.4 6.1q2.5 0 4.2-2.7c1.3-2.1 1.4-3.5 0.7-5.8-0.7-2.4-1.6-3.1-4.1-3.3l-3.1-0.3zm35.9-20h60v29h-16l-0.3-7.1c-0.1-5-0.6-7.3-1.6-7.6-1.1-0.3-1.3 2.8-1.2 17.7 0.1 14.6 0.4 18.3 1.6 19.5 1 1 1.5 3.5 1.5 12.5h-28v-5.5c0-3.5 0.5-6 1.5-7 1.2-1.2 1.5-4.8 1.5-19.5 0-13.9-0.3-17.9-1.3-17.6-0.8 0.2-1.3 2.8-1.7 14.6h-16zm61 0h25l0.1 5.8c0 3.2 0.6 7.3 1.3 9.2 0.7 2 1.6 3.5 2.1 3.5 0.4 0 1.4-1.5 2.1-3.5 0.7-1.9 1.3-6 1.4-15h22v5.3c0 4.7-0.7 6.6-8 19.5-7.5 13.4-8 14.6-8 20.2 0 3.3 0.4 6.3 1 6.5 0.5 0.3 1 3.2 1 12.5h-27v-5.5c0-3.5 0.5-6 1.5-7 0.9-0.9 1.5-3.3 1.5-6.2 0-4-1.3-7.1-8-19.8-7.1-13.2-8-15.6-8-20.2zm197 0v22h-20v-2.5c0-1.4-0.7-3.2-1.5-4-0.8-0.8-2.6-1.5-4-1.5-2.4 0-2.5 0.3-2.5 11h14v13h-14v6c0 5.6 0.2 6 2.2 6 1.3 0 2.9-0.4 3.6-0.8 0.7-0.4 1.6-2.6 2.7-9.2h19.5v24h-53v-5.8c0-3.4 0.6-6.5 1.5-7.7 1.2-1.6 1.5-5.5 1.5-18.5 0-13-0.3-16.9-1.5-18.5-0.8-1.1-1.5-4.3-1.6-7.1-0.2-2.8 0.1-5.4 0.6-5.7 0.5-0.4 12.5-0.7 52.5-0.7zm4.8 0h20.9c19.6 0 21 0.1 25.3 2.2 2.7 1.4 5.2 3.7 6.4 5.8q2 3.5 2 9c-0.1 3-0.6 6.6-1.3 8-0.7 1.4-2.5 3.5-6.6 6.8l3.2 2.6c3 2.4 3.3 3 3.3 8.3 0 3.6 0.5 6.6 1.4 7.8 0.9 1.2 1.5 4.3 1.6 13.5h-12c-11.6 0-12-0.1-12.5-2.3-0.3-1.2-0.5-5.8-0.5-10.2 0-4.9-0.5-8.6-1.2-9.7-0.7-0.9-2.3-1.9-3.6-2.2-2.1-0.6-2.2-0.3-2.2 4.9 0 3.6 0.5 6 1.5 7 1 1 1.5 3.4 1.5 12.5h-27l0.6-6.8c0.3-3.7 0.6-15 0.6-25.2 0-10.2-0.3-21.5-0.7-25.3zm24.2 20c0 5.8 0.1 6 2.5 6q2.5 0 4.1-2.7c1.3-2.1 1.5-3.5 0.7-5.8-0.7-2.3-1.5-3-4-3.3l-3.2-0.3zm33.9-19.9h27v5.5c0 3-0.4 6.3-1 7.2-0.7 1.3-0.3 5.7 3.7 28.8l1.2-8c0.7-4.4 1.6-11.1 1.9-14.8 0.6-5.1 0.4-6.7-0.5-6.7-0.9 0-1.3-1.9-1.3-12h24v5.5c0 3-0.4 6.4-1 7.5-0.5 1.1-3.2 12.8-6 26-2.7 13.2-5 24.2-5 24.5 0 0.3-6.8 0.4-30.3 0l-5.1-24.7c-2.8-13.6-5.6-25.3-6.3-26-0.8-0.8-1.3-3.8-1.3-7.1zm58.8 0h27.2v5.5c0 3.6-0.5 6.1-1.5 7-1.2 1.3-1.5 4.9-1.5 19.5 0 14.7 0.3 18.3 1.5 19.5 1 1 1.5 3.5 1.5 12.5h-27l0.6-6.7c0.3-3.7 0.6-15.1 0.6-25.3 0-10.1-0.3-21.5-0.7-25.2zm141.2 0v22h-20v-2.5c0-1.4-0.7-3.2-1.5-4-0.8-0.8-2.6-1.5-4-1.5-2.4 0-2.5 0.3-2.5 11h14v13h-14v6c0 5.5 0.2 6 2.2 6 1.3 0 2.9-0.4 3.6-0.8 0.7-0.4 1.6-2.6 2.7-9.2h19.5v24h-53v-5.8c0-3.4 0.6-6.5 1.5-7.7 1.2-1.6 1.5-5.5 1.5-18.5 0-13-0.3-16.9-1.5-18.5-0.8-1.1-1.5-4.3-1.6-7.1-0.2-2.8 0.1-5.4 0.6-5.8 0.4-0.3 12.4-0.6 52.5-0.6z"/></svg>